<?xml version="1.0" encoding="utf-8"?>
<!-- Generator: Adobe Illustrator 15.0.2, SVG Export Plug-In  -->
<!DOCTYPE svg PUBLIC "-//W3C//DTD SVG 1.1 Tiny//EN" "http://www.w3.org/Graphics/SVG/1.1/DTD/svg11-tiny.dtd" [
	<!ENTITY ns_flows "http://ns.adobe.com/Flows/1.0/">
]>
<svg version="1.1" baseProfile="tiny"
	 xmlns="http://www.w3.org/2000/svg" xmlns:xlink="http://www.w3.org/1999/xlink" xmlns:a="http://ns.adobe.com/AdobeSVGViewerExtensions/3.0/"
	 x="0px" y="0px" width="20px" height="20px" viewBox="-0.3 -0.3 20 20" xml:space="preserve">
<defs>
</defs>
<path fill-rule="evenodd" fill="#88AF3F" d="M5.1,17.7C5.8,17.9,6.5,18,7.3,18c-0.1,0.2-0.3,0.4-0.4,0.7c-0.8-0.1-1.5-0.2-2.3-0.4
	C4.7,18.1,4.9,17.9,5.1,17.7L5.1,17.7z M6.9,18.7c-0.1,0.2-0.2,0.4-0.2,0.6c0.8,0.1,1.6,0.1,2.4,0.1c0-0.2,0-0.5,0.1-0.7
	C8.5,18.8,7.7,18.8,6.9,18.7L6.9,18.7z M6.4,16.4c0.6,0.1,1.3,0.1,1.9,0.1c-0.2,0.3-0.4,0.5-0.6,0.8c-0.7,0-1.3-0.1-2-0.2
	C6,16.9,6.2,16.7,6.4,16.4L6.4,16.4z M7.7,17.3c-0.2,0.2-0.3,0.5-0.5,0.7c0.8,0.1,1.5,0.1,2.2,0c0.1-0.3,0.2-0.5,0.3-0.8
	C9.1,17.3,8.4,17.4,7.7,17.3L7.7,17.3z M9.4,18.1c0.7,0,1.4-0.1,2-0.3c0,0.3-0.1,0.5-0.1,0.8c-0.7,0.1-1.4,0.2-2.2,0.2
	C9.2,18.5,9.3,18.3,9.4,18.1L9.4,18.1z M11.4,18.5c0,0.2,0,0.5,0,0.7c0.8-0.1,1.5-0.3,2.1-0.5c-0.1-0.3-0.1-0.5-0.2-0.7
	C12.8,18.2,12.1,18.4,11.4,18.5L11.4,18.5z M14.1,12.9c0.3-0.4,0.5-0.9,0.7-1.4c0.2,0.4,0.4,0.9,0.5,1.3c-0.2,0.5-0.5,0.9-0.9,1.4
	C14.3,13.7,14.2,13.3,14.1,12.9L14.1,12.9z M11.9,14.8c0.5-0.2,0.9-0.5,1.3-0.8c0,0.4,0.1,0.8,0.1,1.2c-0.4,0.3-0.9,0.5-1.5,0.8
	C11.8,15.6,11.9,15.2,11.9,14.8L11.9,14.8z M13.2,15.2c0,0.4,0,0.7,0,1.1c0.5-0.3,1-0.6,1.4-1c-0.1-0.4-0.2-0.7-0.2-1.1
	C14.1,14.5,13.7,14.9,13.2,15.2L13.2,15.2z M14.7,15.2c0.1,0.3,0.1,0.7,0.2,1c0.5-0.4,0.9-0.8,1.3-1.3c-0.1-0.3-0.3-0.7-0.4-1
	C15.5,14.4,15.1,14.8,14.7,15.2L14.7,15.2z M8.8,15.6c-0.2,0.3-0.4,0.6-0.6,0.9c0.6,0,1.2-0.1,1.8-0.2c0.1-0.3,0.2-0.7,0.3-1
	C9.9,15.5,9.4,15.6,8.8,15.6L8.8,15.6z M10.1,16.4c0.6-0.1,1.2-0.3,1.7-0.5c0,0.3-0.1,0.7-0.2,1c-0.6,0.2-1.2,0.3-1.9,0.4
	C9.9,17,10,16.7,10.1,16.4L10.1,16.4z M11.6,16.9c-0.1,0.3-0.1,0.6-0.1,0.9c0.7-0.2,1.3-0.4,1.9-0.6c0-0.3,0-0.6,0-0.9
	C12.8,16.5,12.2,16.7,11.6,16.9L11.6,16.9z M13.3,17.1c0.6-0.3,1.1-0.6,1.6-1c0.1,0.3,0.1,0.6,0.2,0.9c-0.5,0.4-1.1,0.7-1.7,0.9
	C13.3,17.7,13.3,17.4,13.3,17.1L13.3,17.1z M15.1,17.1c0.5-0.4,1-0.8,1.4-1.3c0.1,0.3,0.3,0.5,0.4,0.8c-0.4,0.5-0.9,0.9-1.5,1.2
	C15.3,17.6,15.2,17.3,15.1,17.1z"/>
<path fill-rule="evenodd" fill="#88AF3F" d="M1.7,5C1.6,5.8,1.5,6.5,1.4,7.2C1.2,7.1,1,7,0.8,6.9C0.8,6.1,1,5.3,1.1,4.5
	C1.3,4.7,1.5,4.9,1.7,5L1.7,5z M0.8,6.9C0.6,6.8,0.3,6.7,0.1,6.7C0,7.5,0,8.3,0,9.1c0.2,0,0.5,0,0.7,0.1C0.7,8.5,0.7,7.7,0.8,6.9
	L0.8,6.9z M3,6.4C2.9,7.1,2.9,7.7,2.9,8.3C2.7,8.1,2.4,7.9,2.1,7.7c0-0.7,0.1-1.3,0.2-2C2.6,6,2.8,6.2,3,6.4L3,6.4z M2.1,7.7
	C1.9,7.6,1.7,7.4,1.4,7.2C1.4,8,1.4,8.7,1.4,9.4c0.3,0.1,0.5,0.2,0.8,0.3C2.1,9.1,2.1,8.4,2.1,7.7L2.1,7.7z M1.4,9.4
	c0,0.7,0.1,1.4,0.3,2c-0.3,0-0.5-0.1-0.8-0.1C0.8,10.7,0.7,10,0.7,9.2C0.9,9.2,1.2,9.3,1.4,9.4L1.4,9.4z M0.9,11.4
	c-0.2,0-0.5,0-0.7,0c0.1,0.8,0.3,1.5,0.5,2.1c0.3-0.1,0.5-0.1,0.7-0.2C1.2,12.8,1.1,12.1,0.9,11.4L0.9,11.4z M6.6,14.1
	C7,14.4,7.5,14.6,8,14.8c-0.4,0.2-0.9,0.4-1.3,0.5c-0.5-0.2-0.9-0.5-1.4-0.9C5.8,14.3,6.2,14.2,6.6,14.1L6.6,14.1z M4.7,11.9
	c0.2,0.5,0.5,0.9,0.8,1.3c-0.4,0-0.8,0.1-1.2,0.1c-0.3-0.4-0.5-0.9-0.8-1.5C3.9,11.8,4.3,11.9,4.7,11.9L4.7,11.9z M4.3,13.2
	c-0.4,0-0.7,0-1,0c0.3,0.5,0.6,1,1,1.4c0.4-0.1,0.7-0.2,1.1-0.2C5,14.1,4.6,13.7,4.3,13.2L4.3,13.2z M4.2,14.7
	c-0.3,0.1-0.7,0.1-1,0.2c0.4,0.5,0.8,0.9,1.3,1.2c0.3-0.1,0.7-0.3,1-0.4C5.1,15.5,4.6,15.1,4.2,14.7L4.2,14.7z M3.8,8.8
	C3.5,8.7,3.2,8.5,2.9,8.3c0,0.6,0.1,1.2,0.2,1.8c0.3,0.1,0.7,0.2,1,0.3C4,9.9,3.9,9.4,3.8,8.8L3.8,8.8z M3.1,10.1
	c0.1,0.6,0.3,1.2,0.5,1.7c-0.3,0-0.7-0.1-1-0.2C2.4,11,2.3,10.4,2.2,9.7C2.5,9.9,2.8,10,3.1,10.1L3.1,10.1z M2.6,11.6
	c-0.3-0.1-0.6-0.1-0.9-0.1c0.2,0.7,0.4,1.3,0.6,1.8c0.3,0,0.6,0,0.9,0C3,12.8,2.7,12.2,2.6,11.6L2.6,11.6z M2.3,13.3
	c0.3,0.6,0.6,1.1,1,1.6C3,15,2.7,15,2.4,15.1C2,14.6,1.7,14,1.5,13.4C1.8,13.3,2,13.3,2.3,13.3L2.3,13.3z M2.4,15.1
	c0.4,0.5,0.8,1,1.3,1.4c-0.3,0.1-0.5,0.2-0.8,0.4C2.4,16.5,2,16,1.6,15.4C1.9,15.3,2.1,15.2,2.4,15.1z"/>
<path fill-rule="evenodd" fill="#00A9C8" d="M14.4,1.7c-0.8-0.2-1.5-0.3-2.2-0.3c0.1-0.2,0.3-0.4,0.4-0.7c0.8,0.1,1.5,0.2,2.3,0.4
	C14.8,1.3,14.6,1.5,14.4,1.7L14.4,1.7z M12.6,0.8c0.1-0.2,0.2-0.4,0.2-0.6C11.9,0,11.1,0,10.3,0c0,0.2,0,0.5-0.1,0.7
	C11,0.7,11.8,0.7,12.6,0.8L12.6,0.8z M13,3c-0.6-0.1-1.3-0.1-1.8-0.1c0.2-0.3,0.4-0.5,0.6-0.8c0.7,0,1.3,0.1,2,0.2
	C13.5,2.6,13.3,2.8,13,3L13,3z M11.7,2.1c0.2-0.2,0.3-0.5,0.5-0.7c-0.8-0.1-1.5-0.1-2.2,0C10,1.7,9.8,1.9,9.7,2.2
	C10.4,2.1,11,2.1,11.7,2.1L11.7,2.1z M10.1,1.4c-0.7,0-1.4,0.1-2,0.3c0-0.3,0.1-0.5,0.1-0.8c0.7-0.1,1.4-0.2,2.2-0.2
	C10.2,0.9,10.1,1.2,10.1,1.4L10.1,1.4z M8.1,0.9c0-0.2,0-0.5,0-0.7C7.3,0.3,6.6,0.5,5.9,0.7C6,1,6,1.2,6.1,1.5
	C6.7,1.2,7.4,1,8.1,0.9L8.1,0.9z M5.3,6.6C5,7,4.8,7.5,4.7,8C4.5,7.6,4.3,7.1,4.1,6.7C4.4,6.2,4.7,5.8,5,5.3
	C5.1,5.8,5.2,6.2,5.3,6.6L5.3,6.6z M7.6,4.7C7.1,4.9,6.7,5.2,6.3,5.5c0-0.4-0.1-0.8-0.1-1.2C6.7,4,7.2,3.7,7.7,3.5
	C7.6,3.9,7.6,4.3,7.6,4.7L7.6,4.7z M6.2,4.3c0-0.4,0-0.7,0-1.1c-0.5,0.3-1,0.6-1.4,1C4.9,4.6,4.9,5,5,5.3C5.4,5,5.8,4.6,6.2,4.3
	L6.2,4.3z M4.8,4.2c-0.1-0.3-0.1-0.7-0.2-1C4.1,3.7,3.7,4.1,3.3,4.6c0.1,0.3,0.3,0.7,0.4,1C4,5.1,4.4,4.6,4.8,4.2L4.8,4.2z
	 M10.6,3.8c0.2-0.3,0.4-0.6,0.6-0.9c-0.6,0-1.2,0.1-1.8,0.2C9.2,3.4,9.1,3.8,9,4.1C9.5,4,10,3.9,10.6,3.8L10.6,3.8z M9.4,3.1
	C8.8,3.2,8.2,3.3,7.7,3.5c0.1-0.3,0.1-0.7,0.2-1c0.6-0.2,1.2-0.3,1.9-0.4C9.6,2.5,9.5,2.8,9.4,3.1L9.4,3.1z M7.9,2.6
	C7.9,2.3,8,2,8,1.7C7.3,1.8,6.7,2.1,6.2,2.3c0,0.3,0,0.6,0,0.9C6.7,3,7.3,2.7,7.9,2.6L7.9,2.6z M6.2,2.3C5.6,2.6,5,2.9,4.6,3.3
	C4.5,3,4.4,2.7,4.3,2.4C4.9,2,5.4,1.7,6.1,1.5C6.1,1.8,6.1,2,6.2,2.3L6.2,2.3z M4.3,2.4c-0.5,0.4-1,0.8-1.4,1.3
	C2.8,3.4,2.7,3.1,2.5,2.9C3,2.4,3.5,2,4.1,1.6C4.2,1.9,4.3,2.1,4.3,2.4z"/>
<path fill-rule="evenodd" fill="#00A9C8" d="M17.7,14.4c0.1-0.8,0.2-1.5,0.3-2.2c0.2,0.1,0.4,0.3,0.7,0.4c-0.1,0.8-0.2,1.5-0.4,2.3
	C18.1,14.8,17.9,14.6,17.7,14.4L17.7,14.4z M18.7,12.6c0.2,0.1,0.4,0.2,0.6,0.2c0.1-0.8,0.1-1.6,0.1-2.4c-0.2,0-0.5,0-0.7-0.1
	C18.8,11,18.8,11.8,18.7,12.6L18.7,12.6z M16.4,13c0.1-0.6,0.1-1.3,0.1-1.9c0.3,0.2,0.5,0.4,0.8,0.6c0,0.7-0.1,1.3-0.2,2
	C16.9,13.5,16.7,13.3,16.4,13L16.4,13z M17.3,11.7c0.2,0.2,0.5,0.3,0.7,0.5c0.1-0.8,0.1-1.5,0-2.2c-0.3-0.1-0.5-0.2-0.8-0.3
	C17.3,10.4,17.4,11,17.3,11.7L17.3,11.7z M18.1,10.1c0-0.7-0.1-1.4-0.3-2c0.3,0,0.5,0.1,0.8,0.1c0.1,0.7,0.2,1.4,0.2,2.2
	C18.5,10.2,18.3,10.1,18.1,10.1L18.1,10.1z M18.5,8.1c0.2,0,0.5,0,0.7,0c-0.1-0.8-0.3-1.5-0.5-2.1C18.5,6,18.2,6,18,6.1
	C18.2,6.7,18.4,7.4,18.5,8.1L18.5,8.1z M12.9,5.3C12.4,5,12,4.8,11.5,4.7c0.4-0.2,0.9-0.4,1.3-0.5c0.5,0.2,0.9,0.5,1.4,0.9
	C13.7,5.1,13.3,5.2,12.9,5.3L12.9,5.3z M14.8,7.6c-0.2-0.5-0.5-0.9-0.8-1.3c0.4,0,0.8-0.1,1.2-0.1c0.3,0.4,0.5,0.9,0.8,1.5
	C15.6,7.6,15.2,7.6,14.8,7.6L14.8,7.6z M15.2,6.2c0.4,0,0.7,0,1.1,0c-0.3-0.5-0.6-1-1-1.4c-0.4,0.1-0.7,0.2-1.1,0.2
	C14.5,5.4,14.9,5.8,15.2,6.2L15.2,6.2z M15.2,4.8c0.3-0.1,0.7-0.1,1-0.2c-0.4-0.5-0.8-0.9-1.3-1.3c-0.3,0.1-0.7,0.3-1,0.4
	C14.4,4,14.8,4.4,15.2,4.8L15.2,4.8z M15.6,10.6c0.3,0.2,0.6,0.3,0.9,0.6c0-0.6-0.1-1.2-0.2-1.8c-0.3-0.1-0.7-0.2-1-0.3
	C15.5,9.5,15.6,10,15.6,10.6L15.6,10.6z M16.4,9.4c-0.1-0.6-0.3-1.2-0.5-1.7c0.3,0,0.7,0.1,1,0.2c0.2,0.6,0.3,1.2,0.4,1.9
	C17,9.6,16.7,9.5,16.4,9.4L16.4,9.4z M16.9,7.9C17.2,7.9,17.5,8,17.8,8c-0.2-0.7-0.4-1.3-0.6-1.9c-0.3,0-0.6,0-0.9,0
	C16.5,6.7,16.7,7.3,16.9,7.9L16.9,7.9z M17.1,6.2c-0.3-0.6-0.6-1.1-1-1.6c0.3-0.1,0.6-0.1,0.9-0.2c0.4,0.5,0.7,1.1,0.9,1.7
	C17.7,6.1,17.4,6.1,17.1,6.2L17.1,6.2z M17.1,4.3c-0.4-0.5-0.8-1-1.3-1.4c0.3-0.1,0.5-0.2,0.8-0.4C17,3,17.5,3.5,17.8,4.1
	C17.6,4.2,17.3,4.3,17.1,4.3z"/>
</svg>
